<?xml version="1.0" encoding="UTF-8"?>
<svg xmlns="http://www.w3.org/2000/svg" viewBox="0 0 1046.97 777.33">
  <defs>
    <style>
      .cls-1, .cls-2 {
        fill: none;
      }

      .cls-3 {
        letter-spacing: .84em;
      }

      .cls-4, .cls-5, .cls-6 {
        fill: #fff;
      }

      .cls-7 {
        fill: #e2a379;
      }

      .cls-8, .cls-9 {
        mix-blend-mode: multiply;
      }

      .cls-10 {
        letter-spacing: .81em;
      }

      .cls-9 {
        fill: #e2b291;
        opacity: .5;
      }

      .cls-5 {
        font-family: Montserrat-BoldItalic, Montserrat;
        font-size: 47.73px;
        font-style: italic;
        font-weight: 700;
      }

      .cls-6 {
        font-family: Lobster-Regular, Lobster;
        font-size: 229.42px;
      }

      .cls-11 {
        isolation: isolate;
      }

      .cls-2 {
        stroke: #fff;
        stroke-miterlimit: 10;
        stroke-width: 9px;
      }
    </style>
  </defs>
  <g class="cls-11">
    <g id="Layer_1" data-name="Layer 1">
      <rect class="cls-8" width="1046.97" height="777.33"/>
      <polyline class="cls-2" points="834.41 528.92 934.66 528.92 934.66 276.55 119.83 276.55 119.83 528.92 205.84 528.92"/>
      <g>
        <path class="cls-4" d="m607.77,351.26c0,15.28-2.36,30-6.76,43.83-2.59-5.84-5.56-11.47-8.87-16.88-5.8-9.47-12.65-18.21-20.39-26.08-14.61-14.86-32.42-26.58-52.3-34.04-.95-.36-1.89-.71-2.85-1.03h-.01c-8.98-3.17-18.35-5.48-28.04-6.81-.07-.01-.13-.03-.19-.04-2.82-.43-12.25-2.2-18.18-3.32,7.81,1.29,15.85,1.97,24.02,1.97,18.03,0,35.28-3.29,51.2-9.31,11.09-4.18,21.53-9.69,31.12-16.33-4.77-10.58-8.3-21.85-10.4-33.61,7.74,7.87,14.6,16.61,20.39,26.08.67,1.08,1.31,2.17,1.93,3.27.21.35.4.7.6,1.04.46.81.9,1.6,1.33,2.42.15.26.31.53.44.81.5.95,1,1.9,1.47,2.86.13.22.24.44.35.67.58,1.17,1.14,2.34,1.7,3.52.32.7.64,1.38.95,2.09.31.67.6,1.36.89,2.04.76,1.78,1.5,3.59,2.18,5.41.36.9.7,1.82,1.01,2.74.32.88.63,1.77.92,2.66.17.5.33,1,.49,1.5.21.61.4,1.24.6,1.86.72,2.36,1.39,4.75,2,7.17.24.95.47,1.9.7,2.86.51,2.28.99,4.57,1.4,6.89h.01c1.08,6.06,1.79,12.26,2.1,18.54.13,2.4.18,4.81.18,7.23Z"/>
        <path class="cls-4" d="m822.85,313.2c-9.84,12.57-21.73,23.45-35.14,32.17h-.01c-22.71,14.79-49.82,23.38-78.94,23.38-8.66,0-17.15-.76-25.4-2.22.17-2.71.24-5.44.24-8.17,0-1.42-.01-2.84-.07-4.24-.01-.74-.04-1.47-.08-2.21,0-.39-.03-.78-.06-1.17-.03-.71-.07-1.42-.13-2.13-.08-1.39-.19-2.78-.32-4.16-.1-1.03-.21-2.04-.33-3.06-.1-.92-.22-1.83-.35-2.75.01-.03,0-.04,0-.06-.13-.92-.26-1.82-.4-2.72-.14-.92-.29-1.83-.46-2.75-.15-.89-.32-1.78-.49-2.67,0-.01,0-.03-.01-.04-.71-3.63-1.56-7.2-2.52-10.72-.25-.88-.5-1.75-.75-2.61-.26-.88-.53-1.75-.81-2.61-.28-.86-.56-1.72-.85-2.59-.29-.85-.58-1.71-.89-2.54v-.03c-.32-.85-.63-1.7-.95-2.53-.32-.85-.65-1.68-.99-2.52-.9-2.25-1.86-4.46-2.88-6.66-.32-.7-.64-1.38-.97-2.06-.36-.74-.72-1.49-1.1-2.22-.61-1.24-1.25-2.46-1.9-3.67-2.56-4.71-5.35-9.29-8.4-13.66,1.63,1.85,3.34,3.67,5.07,5.44h.01c20.64,20.99,47.62,35.7,77.86,41.04,8.24,1.46,16.74,2.22,25.4,2.22,20.09,0,39.21-4.09,56.6-11.47Z"/>
        <path class="cls-1" d="m657.9,275.98c-3.93-4.39-7.58-9.04-10.94-13.9,3.93,4.39,7.59,9.04,10.94,13.9Z"/>
        <path class="cls-1" d="m646.96,262.08c3.93,4.39,7.59,9.04,10.94,13.9-3.93-4.39-7.58-9.04-10.94-13.9Z"/>
        <path class="cls-1" d="m657.9,275.98c-3.93-4.39-7.58-9.04-10.94-13.9,3.93,4.39,7.59,9.04,10.94,13.9Z"/>
        <path class="cls-7" d="m683.59,358.35c0,2.74-.07,5.46-.24,8.17-30.23-5.34-57.22-20.05-77.86-41.02h-.01c-.42-2.34-.89-4.63-1.4-6.91-.22-.96-.46-1.92-.7-2.86-.61-2.42-1.28-4.81-2-7.17-.19-.63-.39-1.25-.6-1.86-.15-.5-.32-1-.49-1.5-.29-.89-.6-1.78-.92-2.66-.33-.92-.67-1.83-1.01-2.74-.68-1.82-1.42-3.63-2.18-5.41-.29-.68-.58-1.38-.89-2.04-.31-.71-.63-1.39-.95-2.09-.56-1.18-1.11-2.35-1.7-3.52-.11-.22-.22-.44-.35-.67-.47-.96-.97-1.92-1.47-2.86-.14-.28-.29-.54-.44-.81-.43-.82-.88-1.61-1.33-2.42-.19-.35-.39-.7-.6-1.04-.63-1.1-1.26-2.18-1.93-3.27-5.8-9.47-12.65-18.21-20.39-26.08,2.1,11.76,5.63,23.03,10.4,33.61-9.59,6.64-20.03,12.15-31.12,16.33-15.92,6.02-33.17,9.31-51.2,9.31-8.17,0-16.21-.68-24.02-1.97-.22-.03-.43-.07-.64-.11-.39-.07-.79-.14-1.18-.22-.38-.07-.72-.14-1.04-.19-.29-.04-.58-.1-.86-.17-.22-.04-.44-.08-.67-.13-.1-.01-.18-.03-.28-.06-.24-.04-.36-.07-.36-.07-3.31-.67-6.58-1.46-9.8-2.36-1-.28-1.99-.57-2.97-.86-.4,2.42-.88,4.82-1.4,7.2-.08.36-.17.71-.25,1.07-6.14,26.77-19.71,50.7-38.42,69.52,2.32-10.27,3.54-20.96,3.54-31.94,0-9.83-.97-19.43-2.85-28.71-.17-.83-.35-1.67-.53-2.49-.06-.26-.11-.54-.18-.81-1.42-6.32-3.25-12.47-5.48-18.45-5.2-14.04-12.52-27.04-21.57-38.64-.01-.01-.03-.04-.06-.06-1.68-2.17-3.45-4.3-5.28-6.37-.01-.01-.03-.03-.03-.04-3.35-4.31-6.48-8.81-9.34-13.48-.25-.4-.49-.81-.74-1.22-6.64-11.08-11.84-23.13-15.33-35.88-.6-2.17-1.14-4.36-1.64-6.58-2.56.38-5.16.56-7.81.56-1.24,0-2.46-.04-3.67-.13-20.45-1.33-37.87-13.78-46.28-31.36-3.14-6.55-5.03-13.8-5.35-21.46,5.3,2.61,11.08,4.41,17.17,5.21,2.38.31,4.81.47,7.28.47,9.59,0,18.61-2.43,26.47-6.74,1.58-.86,3.13-1.79,4.6-2.81.6-.4,1.18-.81,1.75-1.24,0,0,.01,0,.01-.01,2.68-1.32,9.16-3.25,9.44-3.43t-.01.03c7.53-.32,15.54,5.5,15.54,5.5l-9.97-9.98h-.01c6.26-6.2,10.13-14.79,10.13-24.29,0-4.66-.93-9.09-2.63-13.12,0-.56-.01-1.11-.04-1.67,18.31,9.01,30.92,27.87,30.92,49.67,0,7.41-1.45,14.47-4.1,20.92,0,.11,19.57,17.11,27.5,27.26,10.38,7.15,21.74,12.96,33.83,17.2h.01c15.05,5.32,31.24,8.2,48.11,8.2,1.77,0,3.52-.03,5.25-.1h.01c.96.32,19.21-1.1,27.68-1.1s17.17.76,25.41,2.22c20.02,3.54,38.62,11.19,54.89,22.05,10.36,6.89,19.78,15.1,28,24.37,3.36,4.87,7.01,9.51,10.94,13.9,3.04,4.38,5.84,8.95,8.4,13.66.65,1.22,1.29,2.45,1.9,3.67.38.74.74,1.49,1.1,2.22.33.68.65,1.38.97,2.06,1.01,2.2,1.97,4.41,2.88,6.66.33.83.67,1.67.99,2.52.32.83.63,1.68.95,2.53v.03c.31.83.6,1.7.89,2.54.29.86.57,1.72.85,2.59.28.86.54,1.74.81,2.61.25.86.5,1.74.75,2.61.97,3.52,1.82,7.09,2.52,10.72.01.01.01.03.01.04.17.89.33,1.78.49,2.67.17.92.32,1.83.46,2.75.14.9.28,1.81.4,2.72,0,.01.01.03,0,.06.13.92.25,1.83.35,2.75.13,1.01.24,2.03.33,3.06.13,1.38.24,2.77.32,4.16.06.71.1,1.42.13,2.13.03.39.06.78.06,1.17.04.74.07,1.47.08,2.21.06,1.4.07,2.82.07,4.24Z"/>
        <path class="cls-9" d="m601.02,395.09c-2.59-5.84-5.56-11.47-8.87-16.88-5.8-9.47-12.65-18.21-20.39-26.08-14.61-14.86-32.42-26.58-52.3-34.04-.95-.36-1.89-.71-2.85-1.03h-.01c-8.98-3.17-18.35-5.48-28.04-6.81-.07-.01-.13-.03-.19-.04-2.82-.43-12.25-2.2-18.18-3.32-.22-.03-.43-.07-.64-.11-.39-.07-.79-.14-1.18-.22-.38-.07-.72-.14-1.04-.19-.29-.04-.58-.1-.86-.17-.22-.04-.44-.08-.67-.13-.1-.01-.18-.03-.28-.06-.24-.04-.36-.07-.36-.07-3.31-.67-6.58-1.46-9.8-2.36l-9.4-27.61c0,.74,53.6-11.02,99.45,23.58,23.16,17.47,44.34,46.79,55.62,95.54Z"/>
        <path class="cls-9" d="m412.28,316.57c-1.42-6.32-3.25-12.47-5.48-18.45-5.2-14.04-12.52-27.04-21.57-38.64-.01-.01-.03-.04-.06-.06-1.68-2.17-3.45-4.3-5.28-6.37-.01-.01-.03-.03-.03-.04-3.35-4.31-6.48-8.81-9.34-13.48-.25-.4-.49-.81-.74-1.22-6.64-11.08-11.84-23.13-15.33-35.88-.6-2.17-1.14-4.36-1.64-6.58,0,0,10.59-1.47,16.63-11.66,3.38,42.94,28.93,67.96,42.84,132.38Z"/>
        <path class="cls-9" d="m787.69,345.37c-22.71,14.79-49.82,23.38-78.94,23.38-8.66,0-17.15-.76-25.4-2.22-30.23-5.34-57.22-20.05-77.86-41.02h-.01c-.42-2.34-.89-4.63-1.4-6.91-.22-.96-.46-1.92-.7-2.86-.61-2.42-1.28-4.81-2-7.17-.19-.63-.39-1.25-.6-1.86-.15-.5-.32-1-.49-1.5-.29-.89-.6-1.78-.92-2.66-.33-.92-.67-1.83-1.01-2.74-.68-1.82-1.42-3.63-2.18-5.41-.29-.68-.58-1.38-.89-2.04-.31-.71-.63-1.39-.95-2.09,0,0,35.95,36.52,88.59,54.19,30.54,10.26,66.71,14.18,104.76.92Z"/>
      </g>
      <text class="cls-6" transform="translate(221.09 592.02)"><tspan x="0" y="0">Foxtail</tspan></text>
      <text class="cls-5" transform="translate(336.15 671.03)"><tspan class="cls-10" x="0" y="0">F</tspan><tspan class="cls-3" x="69.2" y="0">ARMS</tspan></text>
    </g>
  </g>
</svg>